<svg xmlns="http://www.w3.org/2000/svg" width="81.014" height="75.152" viewBox="0 0 81.014 75.152">
  <g id="Grupo_446" data-name="Grupo 446" transform="translate(0 0)">
    <path id="Trazado_33" data-name="Trazado 33" d="M61.488,99.623a18.915,18.915,0,0,1,2.816,7.72,14.119,14.119,0,0,1,.084,1.524,11.741,11.741,0,0,1-4.035,9.047,11.394,11.394,0,0,1-5.2,2.568,12.735,12.735,0,0,1-5.829-.2c-3.665-.956-7.32-3.451-10.57-7.216-3.032-3.512-4.991-8.6-6.253-13.443H0a40.507,40.507,0,0,0,81.014,0Z" transform="translate(0 -64.979)" fill="#fff"/>
    <path id="Trazado_34" data-name="Trazado 34" d="M61.768,27.729c.779,4.7,2.672,13.168,6.684,17.814,2.733,3.165,5.709,5.238,8.608,5.994a7.865,7.865,0,0,0,10.132-8.75c-.326-2.977-1.942-6.224-4.675-9.389C78.5,28.751,70.4,25.644,65.866,24.189L45.777.937A2.712,2.712,0,0,0,42.68.21a2.683,2.683,0,0,0-.721.447h0a2.71,2.71,0,0,0-.28,3.818Zm19.139,7.06c2.8,3.245,4.244,6.463,4.239,9.132a28.887,28.887,0,0,0-5.3-8.217,45.141,45.141,0,0,0-8.226-7.048c3.49,1.553,7.113,3.618,9.285,6.133m-2.669,2.3a26.308,26.308,0,0,1,5.006,7.791,5.888,5.888,0,0,1,.408,2.418L67.3,28.366c3.566,2.238,8.083,5.422,10.938,8.727m3.8,11.6a5.888,5.888,0,0,1-2.332-.756,26.3,26.3,0,0,1-6.978-6.088h0c-2.851-3.3-5.344-8.236-7.039-12.09ZM71.122,43.239a29.15,29.15,0,0,0,7.329,6.435c-2.634-.394-5.6-2.287-8.388-5.52-2.172-2.515-3.687-6.4-4.715-10.08a45.124,45.124,0,0,0,5.773,9.165M43.9,2.785a1.467,1.467,0,1,1-.151,2.069A1.467,1.467,0,0,1,43.9,2.785" transform="translate(-26.756)" fill="#fff"/>
  </g>
</svg>
