<svg xmlns="http://www.w3.org/2000/svg" width="14.74" height="28.452" viewBox="0 0 14.74 28.452">
  <g id="cubiertos" transform="translate(-44.896 -829.846)">
    <path id="Trazado_241" data-name="Trazado 241" d="M305.1,16.089c0,.007,0,.015,0,.022v.015c.059,3.433.23,6.868.458,10.293a.048.048,0,0,1,0,.012,1.924,1.924,0,0,1-.959,1.756,1.965,1.965,0,0,1-1.965,0,1.912,1.912,0,0,1-.958-1.764c.215-3.307.387-6.625.452-9.938a2.135,2.135,0,0,1-.993-1.524.525.525,0,0,1-.008-.062c-.13-1.9-.207-3.822-.169-5.73a28.152,28.152,0,0,1,.374-4.348c.3-1.706.958-3.963,2.657-4.665a2.778,2.778,0,0,1,.466-.146l.031,0a.486.486,0,0,1,.148,0,.528.528,0,0,1,.295.146.568.568,0,0,1,.159.3c0,.011,0,.021.006.032a.614.614,0,0,1,0,.155,53.663,53.663,0,0,0-.347,6.631c0,2.94.143,5.89.351,8.823m-1.068.071c-.209-2.956-.353-5.93-.353-8.894,0-1.917.056-3.868.246-5.784-2.492,2.038-1.882,11.074-1.729,13.3a1.009,1.009,0,0,0,.666.822.53.53,0,0,1,.252.209.57.57,0,0,1,.094.327c-.058,3.453-.237,6.911-.46,10.357a.775.775,0,0,0,.407.7.939.939,0,0,0,.931,0,.786.786,0,0,0,.406-.707c-.23-3.44-.4-6.889-.459-10.337" transform="translate(-245.932 829.847)" fill="#8a8a8a" fill-rule="evenodd"/>
    <path id="Trazado_242" data-name="Trazado 242" d="M5.2,26.369c-.309-5.033-.521-10.106-.476-15.149a.583.583,0,0,1,.073-.277.537.537,0,0,1,.194-.2A5.673,5.673,0,0,0,7.555,5.414,5.716,5.716,0,0,0,5.885,1.8a.6.6,0,0,1-.1-.076,2.1,2.1,0,0,0-2.934,0l-.008.006a5.7,5.7,0,0,0-1.747,3.69,5.673,5.673,0,0,0,2.569,5.324.542.542,0,0,1,.2.216.579.579,0,0,1,.067.265c.045,5.045-.172,10.119-.476,15.153a.918.918,0,0,0,.423.823.832.832,0,0,0,.9,0,.93.93,0,0,0,.423-.827m1.069-.057a2.074,2.074,0,0,1-.942,1.849,1.864,1.864,0,0,1-2,0A2.069,2.069,0,0,1,2.382,26.3c.3-4.9.51-9.846.477-14.761A6.849,6.849,0,0,1,.026,5.314,6.84,6.84,0,0,1,2.123.89s0,0,0,0A3.133,3.133,0,0,1,6.408.806a.571.571,0,0,1,.111.08,6.846,6.846,0,0,1,2.1,4.429,6.849,6.849,0,0,1-2.833,6.226c-.033,4.915.175,9.856.476,14.759a.036.036,0,0,1,0,.011" transform="translate(44.896 829.847)" fill="#8a8a8a" fill-rule="evenodd"/>
  </g>
</svg>
