<svg xmlns="http://www.w3.org/2000/svg" xmlns:xlink="http://www.w3.org/1999/xlink" width="31.962" height="31.962" viewBox="0 0 31.962 31.962">
  <defs>
    <clipPath id="clip-path">
      <rect id="Rectángulo_88" data-name="Rectángulo 88" width="31.962" height="31.962" fill="none"/>
    </clipPath>
  </defs>
  <g id="Grupo_205" data-name="Grupo 205" clip-path="url(#clip-path)">
    <path id="Trazado_214" data-name="Trazado 214" d="M31.962,15.981A15.981,15.981,0,1,0,13.484,31.768V20.6H9.427v-4.62h4.057V12.46c0-4.006,2.386-6.218,6.037-6.218a24.555,24.555,0,0,1,3.577.313v3.933H21.083a2.31,2.31,0,0,0-2.6,2.5v3H22.91L22.2,20.6H18.478V31.768A15.986,15.986,0,0,0,31.962,15.981" transform="translate(0 0)" fill="#acacac"/>
    <path id="Trazado_215" data-name="Trazado 215" d="M21.4,20.07l.708-4.62H17.676v-3a2.31,2.31,0,0,1,2.6-2.5H22.3V6.024a24.639,24.639,0,0,0-3.577-.312c-3.651,0-6.037,2.212-6.037,6.217v3.521H8.624v4.62h4.058V31.237a16.121,16.121,0,0,0,4.994,0V20.07Z" transform="translate(0.802 0.531)" fill="#fff"/>
  </g>
</svg>
