<svg xmlns="http://www.w3.org/2000/svg" width="30.474" height="30.473" viewBox="0 0 30.474 30.473">
  <g id="Grupo_448" data-name="Grupo 448" transform="translate(-230.676 -3285.508)">
    <path id="Trazado_221" data-name="Trazado 221" d="M30.8,15.236A15.237,15.237,0,1,1,15.565,0,15.236,15.236,0,0,1,30.8,15.236" transform="translate(230.348 3285.508)" fill="#acacac"/>
    <path id="Trazado_222" data-name="Trazado 222" d="M23.7,9.678a6.862,6.862,0,0,1-1.681.479c.271-.046.667-.535.826-.733A3.094,3.094,0,0,0,23.4,8.408c.014-.029.025-.066,0-.088a.1.1,0,0,0-.09.007,8.547,8.547,0,0,1-1.992.763.136.136,0,0,1-.138-.036A1.487,1.487,0,0,0,21,8.876a3.528,3.528,0,0,0-.965-.592,3.358,3.358,0,0,0-1.48-.238,3.526,3.526,0,0,0-1.4.4,3.606,3.606,0,0,0-1.133.925,3.486,3.486,0,0,0-.677,1.356,3.673,3.673,0,0,0-.035,1.431c.01.079,0,.091-.069.079A10.636,10.636,0,0,1,8.392,8.749c-.08-.091-.124-.091-.19.007a3.471,3.471,0,0,0,.592,4.1c.134.127.273.254.421.371a3.5,3.5,0,0,1-1.321-.371c-.079-.05-.12-.021-.127.07a2.113,2.113,0,0,0,.022.392,3.512,3.512,0,0,0,2.164,2.8,2.056,2.056,0,0,0,.439.134,3.943,3.943,0,0,1-1.3.04c-.094-.018-.13.029-.094.12a3.646,3.646,0,0,0,2.722,2.28c.124.022.247.022.371.05-.007.011-.015.011-.022.022a4.312,4.312,0,0,1-1.859.986,6.659,6.659,0,0,1-2.824.362c-.152-.023-.183-.021-.225,0s-.005.061.044.1c.193.127.389.24.588.349a9.326,9.326,0,0,0,1.888.754,10.052,10.052,0,0,0,9.76-2.282,10.243,10.243,0,0,0,2.7-7.472c0-.107.127-.167.2-.224a6.575,6.575,0,0,0,1.329-1.381.417.417,0,0,0,.088-.265V9.678c0-.044,0-.031-.068,0" transform="translate(230.635 3285.846)" fill="#fff"/>
  </g>
</svg>
